<svg id="Layer_1" height="512" viewBox="0 0 512 512" width="512" xmlns="http://www.w3.org/2000/svg" data-name="Layer 1"><path d="m492.31 399.62v31.2a40.572 40.572 0 0 1 -40.57 40.57h-391.48a40.572 40.572 0 0 1 -40.57-40.57v-31.2h176.79l8.24 8.93a40.536 40.536 0 0 0 29.83 13.08h42.9a40.536 40.536 0 0 0 29.83-13.08l8.24-8.93z" fill="#f4b844"/><path d="m470.88 399.56v.06h-155.36l-8.24 8.93a40.536 40.536 0 0 1 -29.83 13.08h-42.9a40.536 40.536 0 0 1 -29.83-13.08l-8.24-8.93h-155.36v-256.02a40.58 40.58 0 0 1 40.57-40.58h70.52l12.28 14.81a110.819 110.819 0 0 0 -13.2 28.11l-.04-.01h-70.09v216.33h349.68v-216.33h-70.09a106.2 106.2 0 0 0 -13.24-28.1l12.3-14.83.02.02h70.48a40.58 40.58 0 0 1 40.57 40.58z" fill="#fedb41"/><path d="m430.84 145.93v216.33h-349.68v-216.33h70.09l.04.01c-.86 2.75-1.6 5.55-2.22 8.37l-29.75 2.87v40.05l29.75 2.88a106.733 106.733 0 0 0 15.42 36.47l-18.99 22.9 28.31 28.25 22.9-18.98a109.98 109.98 0 0 0 36.53 15.36l2.88 29.69h40.1l2.88-29.69a107.106 107.106 0 0 0 36.54-15.36l22.9 18.98 28.31-28.25-18.99-22.9a110.911 110.911 0 0 0 15.42-36.47l29.4-2.88v-40.05l-29.75-2.87c-.62-2.82-1.34-5.62-2.18-8.38z" fill="#00efd1"/><path d="m152.21 103.02-6.71-8.09 28.31-28.25 22.9 18.98a107.139 107.139 0 0 1 36.53-15.36l2.88-29.69h40.1l2.88 29.69a110.119 110.119 0 0 1 36.54 15.36l22.9-18.98 27.96 28.25-6.69 8.07-12.3 14.83a106.2 106.2 0 0 1 13.24 28.1c.84 2.76 1.56 5.56 2.18 8.38l29.75 2.87v40.05l-29.4 2.88a110.911 110.911 0 0 1 -15.42 36.47l18.99 22.9-28.31 28.25-22.9-18.98a107.106 107.106 0 0 1 -36.54 15.36l-2.88 29.69h-40.1l-2.88-29.69a109.98 109.98 0 0 1 -36.53-15.36l-22.9 18.98-28.31-28.25 18.99-22.9a106.733 106.733 0 0 1 -15.42-36.47l-29.75-2.88v-40.05l29.75-2.87c.62-2.82 1.36-5.62 2.22-8.37a110.819 110.819 0 0 1 13.2-28.11zm184.2 74.19a80.38 80.38 0 1 0 -80.38 80.25 80.319 80.319 0 0 0 80.38-80.25z" fill="#00acea"/><path d="m256.03 96.95a80.255 80.255 0 1 1 -80.38 80.26 80.319 80.319 0 0 1 80.38-80.26z" fill="#fedb41"/><g fill="#083863"><path d="m492.31 394h-15.31v-250.4a46.748 46.748 0 0 0 -46.69-46.6h-58.2a6.026 6.026 0 0 0 -1.342-6.3l-27.96-28.245a6 6 0 0 0 -8.094-.4l-19.585 16.234a116.24 116.24 0 0 0 -30.472-12.845l-2.465-25.218a5.833 5.833 0 0 0 -5.972-5.226h-40.1a5.834 5.834 0 0 0 -5.972 5.226l-2.465 25.317a112.4 112.4 0 0 0 -30.5 12.766l-19.544-16.224a6 6 0 0 0 -8.067.36l-28.31 28.234a6.021 6.021 0 0 0 -1.369 6.321h-58.203a46.748 46.748 0 0 0 -46.69 46.6v250.4h-15.31a5.428 5.428 0 0 0 -5.69 5.62v31.2a46.026 46.026 0 0 0 46.26 46.18h391.48a46.026 46.026 0 0 0 46.26-46.18v-31.2a5.428 5.428 0 0 0 -5.69-5.62zm-318.126-319.217 18.7 15.5a6 6 0 0 0 7.137.387 100.729 100.729 0 0 1 34.484-14.5 5.783 5.783 0 0 0 4.71-5.092l2.351-24.078h29.208l2.354 24.074a5.893 5.893 0 0 0 4.721 5.192 104.176 104.176 0 0 1 34.551 14.492 6 6 0 0 0 7.07-.454l18.67-15.487 20.271 20.476-15.519 18.707a6 6 0 0 0 -.377 7.153 100.247 100.247 0 0 1 12.5 26.522c.761 2.5 1.454 5.166 2.06 7.921a6.187 6.187 0 0 0 5.444 4.683l24.481 2.35v29.16l-24.145 2.35a6.091 6.091 0 0 0 -5.352 4.668 104.805 104.805 0 0 1 -14.631 34.5 6 6 0 0 0 .389 7.1l15.488 18.693-20.578 20.529-18.7-15.5a6 6 0 0 0 -7.137-.386 100.753 100.753 0 0 1 -34.494 14.5 6.116 6.116 0 0 0 -4.712 5.387l-2.354 24.37h-29.208l-2.354-24.369a6.058 6.058 0 0 0 -4.721-5.339 104.222 104.222 0 0 1 -34.538-14.565 6 6 0 0 0 -7.072.416l-18.7 15.49-20.57-20.533 15.5-18.689a6 6 0 0 0 .375-7.156 100.452 100.452 0 0 1 -14.552-34.424 6.186 6.186 0 0 0 -5.444-4.694l-24.49-2.354v-29.154l24.486-2.347a6.092 6.092 0 0 0 5.364-4.683c.587-2.671 1.329-5.318 2.127-7.869 0-.011.027-.022.03-.034a104.947 104.947 0 0 1 12.5-26.588 6 6 0 0 0 -.4-7.108l-15.5-18.688zm-55.602 128.417 25.564 2.467a112.293 112.293 0 0 0 12.9 30.447l-16.18 19.534a6 6 0 0 0 .391 8.077l28.315 28.25a6 6 0 0 0 8.069.373l19.582-16.229a116.128 116.128 0 0 0 30.464 12.844l2.466 25.514a6.088 6.088 0 0 0 5.967 5.523h40.1a6.087 6.087 0 0 0 5.972-5.521l2.465-25.464a112.57 112.57 0 0 0 30.509-12.84l19.545 16.187a6 6 0 0 0 8.067-.379l28.31-28.253a6 6 0 0 0 .381-8.079l-16.224-19.564a116.486 116.486 0 0 0 12.86-30.421l25.32-2.465a6.141 6.141 0 0 0 5.575-5.971v-40.05a6.157 6.157 0 0 0 -3.442-5.18h29.442v204h-338v-204h29.442a6.157 6.157 0 0 0 -3.442 5.18v40.05a6.142 6.142 0 0 0 5.582 5.97zm-71.582-59.6a34.734 34.734 0 0 1 34.69-34.6h67.7l7.714 9.347a103.225 103.225 0 0 0 -10.146 21.653h-65.798a6.08 6.08 0 0 0 -6.16 5.93v216.33a5.923 5.923 0 0 0 6.16 5.74h349.68a5.923 5.923 0 0 0 6.16-5.74v-216.33a6.08 6.08 0 0 0 -6.16-5.93h-65.74a101.547 101.547 0 0 0 -10.18-21.679l7.691-9.321h67.7a34.734 34.734 0 0 1 34.689 34.6v250.4h-149.48a5.833 5.833 0 0 0 -4.41 1.741l-8.244 9.025a34.728 34.728 0 0 1 -25.416 11.234h-42.9a34.822 34.822 0 0 1 -25.42-11.334l-8.24-8.832a5.913 5.913 0 0 0 -4.41-1.834h-149.48zm439 287.22a34.014 34.014 0 0 1 -34.26 34.18h-391.48a34.014 34.014 0 0 1 -34.26-34.18v-24.82h167.853l6.453 6.989a46.669 46.669 0 0 0 34.244 15.011h42.9a46.663 46.663 0 0 0 34.239-15.006l6.458-6.994h167.853z"/><path d="m256.03 263.46a86.255 86.255 0 1 0 -86.38-86.25 86.413 86.413 0 0 0 86.38 86.25zm0-160.51a74.255 74.255 0 1 1 -74.38 74.26 74.4 74.4 0 0 1 74.38-74.26z"/><path d="m195.681 181.776 35.49 26.84a6 6 0 0 0 7.238-9.572l-29.162-22.054 29.162-22.054a6 6 0 0 0 -7.238-9.572l-35.49 26.841a6 6 0 0 0 0 9.571z"/><path d="m272.484 207.449a6 6 0 0 0 8.405 1.167l35.49-26.84a6 6 0 0 0 0-9.571l-35.49-26.841a6 6 0 0 0 -7.238 9.572l29.162 22.054-29.162 22.054a6 6 0 0 0 -1.167 8.405z"/><path d="m249.042 223.163a6.2 6.2 0 0 0 .905.068 6 6 0 0 0 5.926-5.1l12.109-80.049a6 6 0 0 0 -11.865-1.8l-12.11 80.05a6 6 0 0 0 5.035 6.831z"/></g></svg>