<?xml version="1.0" encoding="iso-8859-1"?>
<!-- Generator: Adobe Illustrator 21.0.0, SVG Export Plug-In . SVG Version: 6.00 Build 0)  -->
<svg version="1.1" id="Capa_1" xmlns="http://www.w3.org/2000/svg" xmlns:xlink="http://www.w3.org/1999/xlink" x="0px" y="0px"
	 viewBox="0 0 512 512" style="enable-background:new 0 0 512 512;" xml:space="preserve">
<polygon style="fill:#424EDE;" points="512,223.137 256,17.468 225.976,131.944 423.9,236.809 470.766,274.461 "/>
<polygon style="fill:#6AA9FF;" points="0,223.137 41.234,274.461 88.098,236.811 256,141.952 256,17.468 "/>
<polygon style="fill:#EFE2DD;" points="423.902,236.811 256,101.92 235.984,474.516 322.475,494.532 423.902,494.532 "/>
<polygon style="fill:#FFF5F5;" points="88.098,236.811 88.098,494.532 189.525,494.532 256,474.516 256,101.92 "/>
<path style="fill:#4C250B;" d="M322.475,494.532V359.438c0-36.713-29.762-66.474-66.474-66.475v201.568h66.474V494.532z"/>
<path style="fill:#8F562F;" d="M256,292.963c-36.713,0-66.475,29.762-66.475,66.475v135.094H256V292.963L256,292.963L256,292.963z"
	/>
<g>
</g>
<g>
</g>
<g>
</g>
<g>
</g>
<g>
</g>
<g>
</g>
<g>
</g>
<g>
</g>
<g>
</g>
<g>
</g>
<g>
</g>
<g>
</g>
<g>
</g>
<g>
</g>
<g>
</g>
</svg>
