<svg id="Capa_1" enable-background="new 0 0 512 512" height="512" viewBox="0 0 512 512" width="512" xmlns="http://www.w3.org/2000/svg"><g><path d="m346.722 39.979v103.611l89.938 90.128v-193.739z" fill="#1b2e5b"/><path d="m448.473 214.306v282.673h-385.296v-282.673l192.998-191.844z" fill="#ff5252"/><path d="m448.473 214.306v282.673h-192.298v-474.517z" fill="#ce3858"/><path d="m512 256.325-21.205 21.241-234.62-235.075-234.62 235.075-21.205-21.241 255.825-256.325z" fill="#e2eff7"/><g><g><path d="m225.346 332.574v95.136h-89.939v-95.136l44.97-37.553z" fill="#ffd44a"/><path d="m135.407 257.467h89.939v75.107h-89.939z" fill="#e2eff7"/></g><g><path d="m376.245 332.574v95.136h-89.939v-95.136l44.97-37.553z" fill="#ffb640"/><path d="m286.306 257.467h89.939v75.107h-89.939z" fill="#c3d9ea"/></g></g><ellipse cx="256.175" cy="169.031" fill="#ffd44a" rx="39.973" ry="40.057"/><path d="m0 481.957h512v30.043h-512z" fill="#6ad3ad"/><path d="m256.175 209.088v-80.114c22.045 0 39.973 17.976 39.973 40.057 0 22.091-17.928 40.057-39.973 40.057z" fill="#ffb640"/><path d="m256.175 481.957h255.825v30.043h-255.825z" fill="#49b2a3"/><path d="m490.795 277.566-234.62-235.075v-42.491l255.825 256.325z" fill="#c3d9ea"/></g></svg>