<?xml version="1.0" encoding="iso-8859-1"?>
<!-- Generator: Adobe Illustrator 19.0.0, SVG Export Plug-In . SVG Version: 6.00 Build 0)  -->
<svg version="1.1" id="Capa_1" xmlns="http://www.w3.org/2000/svg" xmlns:xlink="http://www.w3.org/1999/xlink" x="0px" y="0px"
	 viewBox="0 0 512.001 512.001" style="enable-background:new 0 0 512.001 512.001;" xml:space="preserve">
<path style="fill:#5EC62E;" d="M232.526,130.849c-13.141-10.655-27.048-20.432-41.335-29.06l-0.194-0.069
	c-33.997-4.803-68.375,9.617-94.317,39.553c-1.117,1.289-1.253,3.124-0.338,4.565c0.686,1.082,1.802,1.691,3.002,1.691
	c0.329,0,0.664-0.046,0.998-0.14c35.134-9.868,71.473-12.904,108.008-9.029l0.122,0.013l0.115-0.043
	c7.69-2.918,15.666-5.13,23.707-6.574l1.106-0.199L232.526,130.849z"/>
<path style="fill:#4EAA18;" d="M117.264,141.272c20.031-23.116,45.093-36.969,71.125-39.876
	c-33.142-3.726-66.431,10.704-91.71,39.876c-1.117,1.289-1.253,3.124-0.338,4.565c0.686,1.082,1.802,1.691,3.002,1.691
	c0.329,0,0.664-0.046,0.998-0.14c5.308-1.491,10.646-2.806,16.006-3.985C116.424,142.637,116.728,141.891,117.264,141.272z"/>
<path style="fill:#5EC62E;" d="M245.642,129.395c-7.935-22.246-18.544-43.542-31.531-63.298l-0.113-0.123
	c-34.959-27.371-82.195-32.815-129.597-14.937c-1.951,0.736-3.121,2.567-2.979,4.666c0.135,2.004,1.468,3.584,3.397,4.027
	c53.348,12.259,104.216,37.125,147.104,71.911l0.183,0.148l0.232-0.041c4.222-0.759,8.549-1.32,12.862-1.667l0.669-0.053
	L245.642,129.395z"/>
<path style="fill:#4EAA18;" d="M238.387,111.043c-39.595-28.863-84.983-49.68-132.331-60.56c-1.928-0.443-3.262-2.023-3.397-4.027
	c-0.027-0.405,0.008-0.795,0.075-1.174c-6.091,1.534-12.211,3.446-18.334,5.756c-1.951,0.736-3.121,2.567-2.979,4.666
	c0.135,2.004,1.468,3.584,3.397,4.027c53.348,12.259,104.216,37.125,147.104,71.911l0.183,0.148l0.232-0.041
	c4.222-0.759,8.549-1.32,12.862-1.667l0.669-0.053l-0.226-0.632C243.431,123.199,241.006,117.079,238.387,111.043z"/>
<path style="fill:#5EC62E;" d="M256.505,80.798l0.021-0.104l-0.021-0.104c-9.01-43.995-43.704-74.109-92.805-80.557
	c-1.678-0.216-3.221,0.643-3.922,2.201c-0.682,1.517-0.32,3.193,0.924,4.273c37.922,32.927,66.958,75.54,83.97,123.233l0.132,0.372
	l0.393-0.032c3.355-0.269,6.795-0.414,10.224-0.43l0.416-0.002l0.251-1.191c0.146-0.683,0.291-1.367,0.418-2.046l0.018-0.094
	l-0.018-0.094C253.56,110.466,253.559,95.183,256.505,80.798z"/>
<path style="fill:#4EAA18;" d="M254.299,103.186c-17.39-36.952-42.283-69.996-73.012-96.678c-0.982-0.852-1.404-2.077-1.207-3.301
	c-5.26-1.357-10.719-2.429-16.379-3.173c-1.678-0.216-3.221,0.643-3.922,2.201c-0.682,1.517-0.32,3.193,0.924,4.273
	c37.922,32.927,66.958,75.54,83.97,123.233l0.132,0.372l0.393-0.032c3.355-0.269,6.795-0.414,10.224-0.43l0.416-0.002l0.251-1.191
	c0.146-0.683,0.291-1.367,0.418-2.046l0.018-0.094l-0.018-0.094C255.046,118.41,254.311,110.714,254.299,103.186z"/>
<path style="fill:#5EC62E;" d="M415.322,141.272c-44.06-50.845-94.406-39.469-94.511-39.484
	c-14.288,8.628-28.195,18.405-41.335,29.06l-0.872,0.708l1.106,0.199c8.04,1.445,16.016,3.657,23.706,6.574l0.115,0.043l0.122-0.013
	c36.533-3.877,72.873-0.839,108.008,9.029c0.335,0.093,0.669,0.14,0.998,0.14c1.2,0,2.315-0.608,3.002-1.691
	C416.575,144.396,416.439,142.561,415.322,141.272z"/>
<path style="fill:#4EAA18;" d="M320.812,101.788c-14.288,8.628-28.195,18.405-41.335,29.06l-0.872,0.708l1.106,0.199
	c8.04,1.445,16.016,3.657,23.706,6.574l0.115,0.043l0.122-0.013c0.521-0.055,1.042-0.095,1.563-0.147
	c17.427-12.876,36.067-24.084,55.546-33.45C339.22,98.387,323.65,101.698,320.812,101.788z"/>
<path style="fill:#5EC62E;" d="M427.601,51.037c-80.347-30.303-129.603,15.017-129.71,15.06
	c-12.987,19.756-23.596,41.052-31.531,63.298l-0.226,0.632l0.669,0.053c4.312,0.348,8.639,0.909,12.862,1.667l0.232,0.041
	l0.183-0.148c42.888-34.786,93.755-59.652,147.104-71.911c1.928-0.443,3.262-2.023,3.397-4.027
	C430.722,53.604,429.553,51.773,427.601,51.037z"/>
<path style="fill:#4EAA18;" d="M317.892,70.378c2.773-4.382,5.615-6.314,6.506-7.135c18.469-14.461,36.736-20.064,60.273-22.078
	c-32.11-2.641-62.358,5.777-86.667,24.81c-2.341,4.066-18.601,26.856-31.644,63.42l-0.226,0.632l0.669,0.053
	c4.312,0.348,8.639,0.909,12.862,1.667l0.232,0.041l0.183-0.148c3.785-3.07,7.636-6.059,11.542-8.973
	C298.629,104.438,307.438,86.895,317.892,70.378z"/>
<path id="SVGCleanerId_0" style="fill:#5EC62E;" d="M352.224,2.235c-0.701-1.558-2.245-2.416-3.922-2.201
	c-67.45,8.858-106.09,62.822-92.241,129.207l0.085,0.407l0.417,0.002c3.421,0.015,6.867,0.16,10.242,0.43l0.393,0.032l0.132-0.372
	c17.012-47.694,46.048-90.306,83.97-123.233C352.543,5.428,352.906,3.752,352.224,2.235z"/>
<g>
	<path id="SVGCleanerId_0_1_" style="fill:#5EC62E;" d="M352.224,2.235c-0.701-1.558-2.245-2.416-3.922-2.201
		c-67.45,8.858-106.09,62.822-92.241,129.207l0.085,0.407l0.417,0.002c3.421,0.015,6.867,0.16,10.242,0.43l0.393,0.032l0.132-0.372
		c17.012-47.694,46.048-90.306,83.97-123.233C352.543,5.428,352.906,3.752,352.224,2.235z"/>
</g>
<path style="fill:#4EAA18;" d="M352.461,2.968c-0.056-0.246-0.129-0.492-0.237-0.733c-0.701-1.558-2.245-2.416-3.922-2.201
	c-67.45,8.858-106.09,62.822-92.241,129.207l0.085,0.407l0.417,0.002c3.421,0.015,6.867,0.16,10.242,0.43l0.393,0.032l0.132-0.372
	c1.866-5.23,3.885-10.396,6.035-15.498C268.496,60.769,298.394,16.612,352.461,2.968z"/>
<path style="fill:#FFC850;" d="M256.001,127.669L256.001,127.669c-75.068,0-136.487,61.419-136.487,136.486v111.36
	c0.001,75.067,61.419,136.486,136.487,136.486l0,0c75.068,0,136.486-61.419,136.486-136.486v-111.36
	C392.487,189.088,331.069,127.669,256.001,127.669z"/>
<path style="fill:#F9B428;" d="M140.099,375.515v-111.36c0-71.606,55.886-130.791,126.194-136.097
	c-3.399-0.256-6.831-0.389-10.292-0.389l0,0c-75.068,0-136.486,61.419-136.486,136.486v111.36
	c0,75.067,61.418,136.486,136.486,136.486l0,0c3.461,0,6.893-0.133,10.292-0.389C195.985,506.306,140.099,447.121,140.099,375.515z"
	/>
<path style="fill:#ED9D0F;" d="M370.502,449.556c2.903-4.464,5.55-9.108,7.926-13.908l-39.829-39.829l53.889-53.889v-30.866
	l-53.692-53.692l43.906-43.817c-2.049-5.091-4.396-10.033-7.021-14.804l-47.801,47.704l-58.702-58.702l46.293-46.357
	c-4.986-2.433-10.138-4.572-15.436-6.392l-41.774,41.832l-42.937-42.937c-5.406,1.7-10.669,3.732-15.767,6.067l47.795,47.795
	l-58.364,58.446l-50.773-50.773c-2.733,4.654-5.197,9.481-7.372,14.461l47.236,47.237l-58.365,58.446l-0.198-0.198v22.244
	l0.205-0.206l58.447,58.447l-42.995,42.908c2.48,4.703,5.225,9.247,8.218,13.61l45.694-45.602l58.36,58.36l-38.46,38.461
	c5.456,2.018,11.075,3.693,16.828,5.005l32.549-32.549l31.631,31.631c5.624-1.455,11.109-3.267,16.432-5.401l-37.146-37.146
	l58.405-58.405L370.502,449.556z M386.087,326.497l-58.405,58.405l-58.279-58.279l58.464-58.346L386.087,326.497z M258.267,198.677
	l58.684,58.684l-58.464,58.346l-58.584-58.584L258.267,198.677z M130.629,326.494l58.365-58.446l58.565,58.565l-58.464,58.346
	L130.629,326.494z M258.36,454.225l-58.349-58.349l58.464-58.346l58.29,58.29L258.36,454.225z"/>
<g>
</g>
<g>
</g>
<g>
</g>
<g>
</g>
<g>
</g>
<g>
</g>
<g>
</g>
<g>
</g>
<g>
</g>
<g>
</g>
<g>
</g>
<g>
</g>
<g>
</g>
<g>
</g>
<g>
</g>
</svg>
